<svg xmlns="http://www.w3.org/2000/svg" width="600" height="24">
  <g fill="none" stroke="#C3D2DF" stroke-width="2">
    <svg width="24" height="24">
      <path d="M4.56 9.56l5.04 4.18c.9.8 1.7 1.2 2.4 1.2s1.5-.4 2.4-1.2l5.04-4.18"/>
    </svg>
    <svg width="24" height="24" x="24">
      <path d="M4.56 10.62l5.04 2.54c.92.48 1.72.72 2.4.72.7 0 1.48-.24 2.4-.72l5.04-2.54"/>
    </svg>
    <svg width="24" height="24" x="48">
      <path d="M4.56 11.55l5.04 1.1c.92.2 1.72.3 2.4.3.68 0 1.48-.1 2.4-.3l5.04-1.1"/>
    </svg>
    <svg width="24" height="24" x="72">
      <path d="M4.56 12.37l5.04-.18c.92-.06 1.72-.07 2.4-.07.68 0 1.48 0 2.4.05l5.04.17"/>
    </svg>
    <svg width="24" height="24" x="96">
      <path d="M4.56 13.07L9.6 11.8c.92-.25 1.72-.37 2.4-.37.68 0 1.48.12 2.4.36l5.04 1.26"/>
    </svg>
    <svg width="24" height="24" x="120">
      <path d="M4.56 13.67l5.04-2.2c.92-.43 1.72-.64 2.4-.64.68 0 1.48.2 2.4.63l5.04 2.2"/>
    </svg>
    <svg width="24" height="24" x="144">
      <path d="M4.56 14.18l5.04-3c.92-.58 1.72-.86 2.4-.86.68 0 1.48.28 2.4.86l5.04 3"/>
    </svg>
    <svg width="24" height="24" x="168">
      <path d="M4.56 14.6l5.04-3.66c.92-.7 1.72-1.04 2.4-1.04.68 0 1.48.35 2.4 1.04l5.04 3.66"/>
    </svg>
    <svg width="24" height="24" x="192">
      <path d="M4.56 14.94l5.04-4.18c.92-.8 1.72-1.2 2.4-1.2.68 0 1.48.4 2.4 1.2l5.04 4.18"/>
    </svg>
    <svg width="24" height="24" x="216">
      <path d="M4.56 15.2l5.04-4.6c.92-.86 1.72-1.3 2.4-1.3.68 0 1.48.44 2.4 1.3l5.04 4.6"/>
    </svg>
    <svg width="24" height="24" x="240">
      <path d="M4.56 15.4l5.04-4.9c.92-.93 1.72-1.4 2.4-1.4.68 0 1.48.47 2.4 1.4l5.04 4.9"/>
    </svg>
    <svg width="24" height="24" x="264">
      <path d="M4.56 15.53l5.04-5.1c.92-.97 1.72-1.46 2.4-1.46.68 0 1.48.5 2.4 1.46l5.04 5.1"/>
    </svg>
    <svg width="24" height="24" x="288">
      <path d="M4.56 15.6l5.04-5.2c.92-1 1.72-1.5 2.4-1.5.68 0 1.48.5 2.4 1.5l5.04 5.23"/>
    </svg>
    <svg width="24" height="24" x="312">
      <path d="M4.56 15.64l5.04-5.27c.92-1 1.72-1.5 2.4-1.5.68 0 1.48.5 2.4 1.5l5.04 5.27"/>
    </svg>
    <svg width="24" height="24" x="336">
      <path d="M4.56 15.64l5.04-5.27c.92-1 1.72-1.5 2.4-1.5.68 0 1.48.5 2.4 1.5l5.04 5.27"/>
    </svg>
    <svg width="24" height="24" x="360">
      <path d="M4.56 15.6l5.04-5.2c.92-1 1.72-1.5 2.4-1.5.68 0 1.48.5 2.4 1.5l5.04 5.2"/>
    </svg>
    <svg width="24" height="24" x="384">
      <path d="M4.56 15.54l5.04-5.1c.92-1 1.72-1.47 2.4-1.47.68 0 1.48.48 2.4 1.45l5.04 5.12"/>
    </svg>
    <svg width="24" height="24" x="408">
      <path d="M4.56 15.45l5.04-4.98c.92-.95 1.72-1.42 2.4-1.42.68 0 1.48.47 2.4 1.42l5.04 4.98"/>
    </svg>
    <svg width="24" height="24" x="432">
      <path d="M4.56 15.36l5.04-4.84c.92-.92 1.72-1.38 2.4-1.38.68 0 1.48.46 2.4 1.38l5.04 4.84"/>
    </svg>
    <svg width="24" height="24" x="456">
      <path d="M4.56 15.26l5.04-4.68c.92-.9 1.72-1.34 2.4-1.34.68 0 1.48.45 2.4 1.34l5.04 4.68"/>
    </svg>
    <svg width="24" height="24" x="480">
      <path d="M4.56 15.16l5.04-4.53c.92-.86 1.72-1.3 2.4-1.3.68 0 1.48.44 2.4 1.3l5.04 4.53"/>
    </svg>
    <svg width="24" height="24" x="504">
      <path d="M4.56 15.07l5.04-4.4c.92-.83 1.72-1.24 2.4-1.24.68 0 1.48.4 2.4 1.25l5.04 4.4"/>
    </svg>
    <svg width="24" height="24" x="528">
      <path d="M4.56 15l5.04-4.28c.92-.82 1.72-1.22 2.4-1.22.68 0 1.48.4 2.4 1.22L19.44 15"/>
    </svg>
    <svg width="24" height="24" x="552">
      <path d="M4.56 14.96l5.04-4.2c.92-.8 1.72-1.2 2.4-1.2.68-.02 1.48.4 2.4 1.2l5.04 4.2"/>
    </svg>
    <svg width="24" height="24" x="576">
      <path d="M4.56 14.94l5.04-4.18c.92-.8 1.72-1.2 2.4-1.2.68 0 1.48.4 2.4 1.2l5.04 4.18"/>
    </svg>
  </g>
</svg>
