<svg xmlns="http://www.w3.org/2000/svg" viewBox="0 0 600 24" width="600" height="24">
  <g fill="none" stroke="rgb(195, 210, 223)" stroke-width="2">
    <svg viewBox="0 0 24 24" width="24" height="24">
      <path d="M4.556 9.563l5.043 4.18c.914.796 1.714 1.195 2.401 1.195.687 0 1.486-.399 2.398-1.195l5.046-4.18"/>
    </svg>
    <svg viewBox="0 0 24 24" width="24" height="24" x="24">
      <path d="M4.556 10.618l5.043 2.539c.916.483 1.716.725 2.401.725.685 0 1.484-.242 2.398-.725l5.046-2.539"/>
    </svg>
    <svg viewBox="0 0 24 24" width="24" height="24" x="48">
      <path d="M4.556 11.55l5.043 1.089c.917.207 1.718.311 2.401.311.683 0 1.483-.104 2.398-.311l5.046-1.089"/>
    </svg>
    <svg viewBox="0 0 24 24" width="24" height="24" x="72">
      <path d="M4.556 12.365l5.043-.179c.919-.034 1.719-.051 2.401-.051.682 0 1.481.017 2.398.051l5.046.179"/>
    </svg>
    <svg viewBox="0 0 24 24" width="24" height="24" x="96">
      <path d="M4.556 13.071l5.043-1.277c.92-.244 1.72-.365 2.401-.365.681 0 1.48.121 2.398.365l5.046 1.277"/>
    </svg>
    <svg viewBox="0 0 24 24" width="24" height="24" x="120">
      <path d="M4.556 13.674l5.043-2.215c.921-.422 1.722-.633 2.401-.633.679 0 1.479.211 2.398.633l5.046 2.215"/>
    </svg>
    <svg viewBox="0 0 24 24" width="24" height="24" x="144">
      <path d="M4.556 14.182l5.043-3.005c.922-.572 1.722-.859 2.401-.859.679 0 1.478.287 2.398.859l5.046 3.005"/>
    </svg>
    <svg viewBox="0 0 24 24" width="24" height="24" x="168">
      <path d="M4.556 14.6l5.043-3.656C10.522 10.248 11.322 9.9 12 9.9c.678 0 1.477.348 2.398 1.044l5.046 3.656"/>
    </svg>
    <svg viewBox="0 0 24 24" width="24" height="24" x="192">
      <path d="M4.556 14.938l5.043-4.181c.923-.796 1.724-1.194 2.401-1.194.677 0 1.477.398 2.398 1.194l5.046 4.181"/>
    </svg>
    <svg viewBox="0 0 24 24" width="24" height="24" x="216">
      <path d="M4.556 15.2l5.043-4.589C10.523 9.737 11.323 9.3 12 9.3c.677 0 1.476.437 2.398 1.311l5.046 4.589"/>
    </svg>
    <svg viewBox="0 0 24 24" width="24" height="24" x="240">
      <path d="M4.556 15.395l5.043-4.892c.924-.932 1.725-1.398 2.401-1.398.676 0 1.476.466 2.398 1.398l5.046 4.892"/>
    </svg>
    <svg viewBox="0 0 24 24" width="24" height="24" x="264">
      <path d="M4.556 15.529l5.043-5.101c.924-.971 1.725-1.457 2.401-1.457.676 0 1.476.486 2.398 1.457l5.046 5.101"/>
    </svg>
    <svg viewBox="0 0 24 24" width="24" height="24" x="288">
      <path d="M4.556 15.609l5.043-5.225c.925-.996 1.725-1.493 2.401-1.493.676 0 1.476.497 2.398 1.493l5.046 5.225"/>
    </svg>
    <svg viewBox="0 0 24 24" width="24" height="24" x="312">
      <path d="M4.556 15.643l5.043-5.278c.925-1.006 1.725-1.508 2.401-1.508.676 0 1.475.502 2.398 1.508l5.046 5.278"/>
    </svg>
    <svg viewBox="0 0 24 24" width="24" height="24" x="336">
      <path d="M4.556 15.637l5.043-5.269c.925-1.004 1.725-1.505 2.401-1.505.676 0 1.475.501 2.398 1.505l5.046 5.269"/>
    </svg>
    <svg viewBox="0 0 24 24" width="24" height="24" x="360">
      <path d="M4.556 15.599l5.043-5.209c.925-.993 1.725-1.489 2.401-1.489.676 0 1.476.496 2.398 1.489l5.046 5.209"/>
    </svg>
    <svg viewBox="0 0 24 24" width="24" height="24" x="384">
      <path d="M4.556 15.535l5.043-5.11c.924-.973 1.725-1.46 2.401-1.46.676 0 1.476.487 2.398 1.46l5.046 5.11"/>
    </svg>
    <svg viewBox="0 0 24 24" width="24" height="24" x="408">
      <path d="M4.556 15.452l5.043-4.981c.924-.949 1.725-1.423 2.401-1.423.676 0 1.476.474 2.398 1.423l5.046 4.981"/>
    </svg>
    <svg viewBox="0 0 24 24" width="24" height="24" x="432">
      <path d="M4.556 15.357l5.043-4.833c.924-.921 1.725-1.381 2.401-1.381.676 0 1.476.46 2.398 1.381l5.046 4.833"/>
    </svg>
    <svg viewBox="0 0 24 24" width="24" height="24" x="456">
      <path d="M4.556 15.258l5.043-4.679c.924-.892 1.724-1.337 2.401-1.337.677 0 1.476.445 2.398 1.337l5.046 4.679"/>
    </svg>
    <svg viewBox="0 0 24 24" width="24" height="24" x="480">
      <path d="M4.556 15.161l5.043-4.528c.924-.863 1.724-1.294 2.401-1.294.677 0 1.476.431 2.398 1.294l5.046 4.528"/>
    </svg>
    <svg viewBox="0 0 24 24" width="24" height="24" x="504">
      <path d="M4.556 15.074l5.043-4.393c.924-.837 1.724-1.255 2.401-1.255.677 0 1.476.418 2.398 1.255l5.046 4.393"/>
    </svg>
    <svg viewBox="0 0 24 24" width="24" height="24" x="528">
      <path d="M4.556 15.003l5.043-4.282c.923-.816 1.724-1.224 2.401-1.224.677 0 1.477.408 2.398 1.224l5.046 4.282"/>
    </svg>
    <svg viewBox="0 0 24 24" width="24" height="24" x="552">
      <path d="M4.556 14.955l5.043-4.208c.923-.801 1.724-1.202 2.401-1.202.677 0 1.477.401 2.398 1.202l5.046 4.208"/>
    </svg>
    <svg viewBox="0 0 24 24" width="24" height="24" x="576">
      <path d="M4.556 14.938l5.043-4.181c.923-.796 1.724-1.194 2.401-1.194.677 0 1.477.398 2.398 1.194l5.046 4.181"/>
    </svg>
  </g>
</svg>
